<?xml version="1.0" encoding="UTF-8"?><svg id="title" xmlns="http://www.w3.org/2000/svg" viewBox="0 0 194.09 24"><defs><style>.cls-1{fill:#fff;}</style></defs><path class="cls-1" d="M15.27,3.72V13.44c0,4.83-2.82,6.84-6.43,6.84s-6.43-2.01-6.43-6.81V3.72h3.93V13.47c0,2.39,.71,3.55,2.51,3.55s2.51-1.16,2.51-3.55V3.72h3.93Z"/><path class="cls-1" d="M17.75,3.72h3.55V15.41c0,1.28,.54,1.61,1.49,1.61v3.03c-3.29,0-5.04-.66-5.04-3.86V3.72Z"/><path class="cls-1" d="M23.73,8.21h1.51v-2.6h3.55v2.6h2.13v2.98h-2.13v4.42c0,.95,.26,1.35,1.14,1.35h.99v3.08h-1.4c-2.89,0-4.28-.64-4.28-3.97v-4.87h-1.51v-2.98Z"/><path class="cls-1" d="M32.81,3.72h3.79v3.31h-3.79V3.72Zm.12,4.49h3.55v11.83h-3.55V8.21Z"/><path class="cls-1" d="M38.96,8.21h3.46v.9c.4-.52,1.25-1.14,2.48-1.14,1.35,0,2.51,.5,3.24,1.49,.73-.8,1.82-1.49,3.34-1.49,2.6,0,4.09,1.56,4.09,4.64v7.43h-3.55v-6.74c0-1.59-.4-2.3-1.51-2.3-.85,0-1.47,.52-1.47,2.06v6.98h-3.55v-6.74c0-1.75-.57-2.3-1.47-2.3s-1.51,.57-1.51,2.27v6.77h-3.55V8.21Z"/><path class="cls-1" d="M61.45,12.83h2.11v-.35c0-1.16-.21-1.61-1.87-1.61-1.02,0-1.49,.19-1.92,.8l-2.48-1.73c.92-1.47,2.29-1.96,4.8-1.96,3.08,0,4.92,.88,4.92,4.52v7.55h-3.45v-.97c-.4,.64-1.04,1.21-2.34,1.21-2.32,0-4.12-1.28-4.12-3.76s1.89-3.69,4.35-3.69Zm2.11,2.51h-1.61c-.9,0-1.4,.31-1.4,1.09,0,.69,.54,1.07,1.44,1.07,1.18,0,1.56-.71,1.56-1.8v-.36Z"/><path class="cls-1" d="M68.3,8.21h1.51v-2.6h3.55v2.6h2.13v2.98h-2.13v4.42c0,.95,.26,1.35,1.14,1.35h.99v3.08h-1.4c-2.89,0-4.28-.64-4.28-3.97v-4.87h-1.51v-2.98Z"/><path class="cls-1" d="M86.54,18.25c-.83,1.44-2.25,2.03-4.4,2.03-3.74,0-5.35-2.41-5.35-5.35v-1.66c0-3.67,1.89-5.3,4.97-5.3,3.43,0,4.97,1.96,4.97,5.66v1.4h-6.39c.05,1.35,.38,2.27,1.82,2.27,1.11,0,1.35-.33,1.77-.88l2.6,1.82Zm-6.18-5.58h2.82c-.07-1.3-.57-1.7-1.4-1.7-.92,0-1.32,.64-1.42,1.7Z"/><path class="cls-1" d="M131.7,20.04l-2.72-6.18h-2.03v6.18h-3.93V3.72h6.15c3.76,0,6.18,1.73,6.18,5.13,0,2.13-.95,3.57-2.6,4.33l3.26,6.86h-4.3Zm-3.01-9.44c1.59,0,2.72-.21,2.72-1.75s-1.14-1.87-2.72-1.87h-1.75v3.62h1.75Z"/><path class="cls-1" d="M146.81,18.25c-.83,1.44-2.25,2.03-4.4,2.03-3.74,0-5.35-2.41-5.35-5.35v-1.66c0-3.67,1.89-5.3,4.97-5.3,3.43,0,4.97,1.96,4.97,5.66v1.4h-6.39c.05,1.35,.38,2.27,1.82,2.27,1.11,0,1.35-.33,1.77-.88l2.6,1.82Zm-6.18-5.58h2.82c-.07-1.3-.57-1.7-1.4-1.7-.92,0-1.32,.64-1.42,1.7Z"/><path class="cls-1" d="M152.65,12.83h2.11v-.35c0-1.16-.21-1.61-1.87-1.61-1.02,0-1.49,.19-1.92,.8l-2.48-1.73c.92-1.47,2.29-1.96,4.8-1.96,3.08,0,4.92,.88,4.92,4.52v7.55h-3.45v-.97c-.4,.64-1.04,1.21-2.34,1.21-2.32,0-4.12-1.28-4.12-3.76s1.89-3.69,4.35-3.69Zm2.11,2.51h-1.61c-.9,0-1.4,.31-1.4,1.09,0,.69,.54,1.07,1.44,1.07,1.18,0,1.56-.71,1.56-1.8v-.36Z"/><path class="cls-1" d="M166.84,3.72h3.55V20.04h-3.55v-.52c-.57,.47-1.3,.76-2.22,.76-3.03,0-4.64-2.18-4.64-5.35v-1.66c0-3.48,1.89-5.3,4.64-5.3,.83,0,1.59,.19,2.22,.64V3.72Zm0,10.91v-1.3c0-1.59-.45-2.37-1.66-2.37-1.28,0-1.66,.87-1.66,2.63v1.04c0,1.56,.19,2.67,1.66,2.67s1.66-1.11,1.66-2.67Z"/><path class="cls-1" d="M181.9,18.25c-.83,1.44-2.25,2.03-4.4,2.03-3.74,0-5.35-2.41-5.35-5.35v-1.66c0-3.67,1.89-5.3,4.97-5.3,3.43,0,4.97,1.96,4.97,5.66v1.4h-6.39c.05,1.35,.38,2.27,1.82,2.27,1.11,0,1.35-.33,1.77-.88l2.6,1.82Zm-6.18-5.58h2.82c-.07-1.3-.57-1.7-1.4-1.7-.92,0-1.32,.64-1.42,1.7Z"/><path class="cls-1" d="M190.36,11.86c-.21-.35-.54-.85-1.23-.85-1.02,0-1.61,.71-1.61,2.3v6.74h-3.55V8.21h3.46v.9c.35-.45,1.13-1.14,2.48-1.14s2.41,.66,3.1,1.99l-2.65,1.89Z"/><g><path class="cls-1" d="M105.85,6.99h2.15c2.03,0,2.51,1.51,2.51,3.71v1.6h3.93v-1.6c0-5.16-2.72-6.98-6.43-6.98h-6.08V12.3h3.93V6.99Z"/><g><rect class="cls-1" x="94.68" y="3.72" width="4.48" height="8.58"/><rect class="cls-1" x="94.68" y="16.78" width="4.48" height="3.26"/></g><path class="cls-1" d="M113.76,16.78c-1.03,2.33-3.14,3.26-5.76,3.26h-6.08v-3.26h11.84Z"/></g></svg>